<?xml version="1.0" encoding="UTF-8"?>
<svg id="Layer_2" data-name="Layer 2" xmlns="http://www.w3.org/2000/svg" viewBox="0 0 1074.32 442.74">
  <defs>
    <style>
      .cls-1 {
        stroke: #ff1717;
        stroke-width: .75px;
      }

      .cls-1, .cls-2, .cls-3 {
        stroke-miterlimit: 10;
      }

      .cls-2 {
        stroke: #000;
        stroke-width: .25px;
      }

      .cls-2, .cls-3 {
        fill: none;
      }

      .cls-3 {
        opacity: .42;
        stroke: #c85b32;
        stroke-linecap: round;
        stroke-width: 8px;
      }
    </style>
  </defs>
  <g id="Layer_1-2" data-name="Layer 1">
    <line class="cls-1" x1="42.6" x2="42.6" y2="442.72"/>
    <line class="cls-1" x1="39.51" y1=".01" x2="39.51" y2="442.74"/>
    <line class="cls-2" x1="1074.32" y1="102.68" x2="27.62" y2="102.68"/>
    <line class="cls-2" x1="1074.32" y1="132.68" x2="27.62" y2="132.68"/>
    <line class="cls-2" x1="1066.99" y1="162.68" x2="20.3" y2="162.68"/>
    <line class="cls-2" x1="1066.99" y1="192.68" x2="20.3" y2="192.68"/>
    <line class="cls-2" x1="1054.02" y1="227.85" x2="7.33" y2="227.85"/>
    <line class="cls-2" x1="1054.02" y1="257.85" x2="7.33" y2="257.85"/>
    <line class="cls-2" x1="1046.7" y1="287.85" y2="287.85"/>
    <line class="cls-2" x1="1046.7" y1="317.85" y2="317.85"/>
    <line class="cls-2" x1="1070.66" y1="347.85" x2="23.96" y2="347.85"/>
    <line class="cls-2" x1="1070.66" y1="377.85" x2="23.96" y2="377.85"/>
    <line class="cls-2" x1="1063.33" y1="407.85" x2="16.63" y2="407.85"/>
    <line class="cls-2" x1="1063.33" y1="437.85" x2="16.63" y2="437.85"/>
    <path class="cls-3" d="M501.2,263.64s-17.75,26.83-26.63-.18c-8.88-27.01,26.63-23.55,26.63-23.55,0,0,8.24,2.89,11.41,5.9,3.17,3.01-66.58-97.17-116.35-60.88,0,0-21.24,13.11,36.14,54.98,0,0-88.45,4.41,12.68,33.13,0,0-43.12,70.2,80.53,0"/>
    <path class="cls-3" d="M600.74,262.94s17.75,26.83,26.63-.18c8.88-27.01-26.63-23.55-26.63-23.55,0,0-8.24,2.89-11.41,5.9s66.58-97.17,116.35-60.88c0,0,21.24,13.11-36.14,54.98,0,0,88.45,4.41-12.68,33.13,0,0,43.12,70.2-80.53,0"/>
  </g>
</svg>